<svg id="KSDrafter_Layer" data-name="KSDrafter Layer" xmlns="http://www.w3.org/2000/svg" viewBox="0 0 807.87 161.17"><g id="Color_Bento_Collage" data-name="Color Bento Collage"><path d="M81.74,159.81V1.36h40.7c13,0,21.68,2.6,27.27,8.19s8.19,14.25,8.19,27.27v87.54c0,13-2.6,21.67-8.19,27.26s-14.25,8.19-27.27,8.19Zm40.7-10.29c10.44,0,16.22-1.52,19.93-5.23s5.23-9.49,5.23-19.93V85.73H92v63.79ZM147.6,75.43V36.82c0-10.35-1.55-16.32-5.2-20s-9.62-5.2-20-5.2H92V75.43ZM67.37,159.81V85.73H11.8v38.63c0,10.44,1.51,16.21,5.23,19.93s9.49,5.23,19.93,5.23H59.82v10.29H37c-13,0-21.68-2.6-27.27-8.19S1.5,137.37,1.5,124.36V36.82c0-13,2.6-21.68,8.19-27.27S23.94,1.36,37,1.36h40.7V159.81Zm0-84.38V11.66H37c-10.44,0-16.22,1.51-19.93,5.22S11.8,26.37,11.8,36.82V75.43Z" style="fill:#1c5a7a"/><path d="M122.44,1.86c12.87,0,21.42,2.56,26.91,8S157.4,24,157.4,36.82v87.54c0,12.87-2.56,21.42-8.05,26.91s-14,8-26.91,8H82.24V1.86h40.2M91.54,75.93H148.1V36.82c0-10.49-1.6-16.57-5.35-20.32s-9.82-5.34-20.31-5.34H91.54V75.93m0,74.09h30.9c10.59,0,16.47-1.56,20.29-5.38s5.37-9.69,5.37-20.28V85.23H91.54V150M77.16,1.86V159.31H67.87V85.23H11.3v39.13c0,10.58,1.56,16.46,5.37,20.28S26.37,150,37,150H59.32v9.29H37c-12.88,0-21.43-2.55-26.91-8s-8-14-8-26.91V36.82C2,24,4.56,15.39,10.05,9.9s14-8,26.91-8h40.2M11.3,75.93H67.87V11.16H37c-10.59,0-16.47,1.55-20.29,5.37S11.3,26.22,11.3,36.82V75.93M122.44.86H81.24V160.31h41.2c13.16,0,21.93-2.65,27.62-8.33s8.34-14.47,8.34-27.62V36.82c0-13.16-2.65-21.93-8.34-27.62S135.6.86,122.44.86Zm-29.9,11.3h29.9c10.2,0,16.06,1.51,19.61,5.05s5,9.41,5,19.61V74.93H92.54V12.16Zm0,74.07H147.1v38.13c0,10.29-1.47,16-5.08,19.57S132.74,149,122.44,149H92.54V86.23ZM78.16.86H37C23.8.86,15,3.51,9.34,9.2S1,23.66,1,36.82v87.54C1,137.51,3.65,146.29,9.34,152S23.8,160.31,37,160.31H60.32V149H37c-10.3,0-16-1.48-19.58-5.09s-5.08-9.28-5.08-19.57V86.23H66.87v74.08H78.16V.86ZM12.3,74.93V36.82c0-10.3,1.47-16,5.08-19.58S26.66,12.16,37,12.16H66.87V74.93Z" style="fill:#1c5a7a"/><path d="M684.51,133.56l37.25-64.72H713c-13.61,0-20.35.62-24.83,14.57l-.24.73-3.51-1.29.37-2.5c.73-5,1.45-9.86,2.1-14.8l.09-.64h53.56l-37.25,64.72H712c13.35,0,20.52-.63,24.75-14.26l.48-1,3.34,1.15-.08.6c-.73,5.51-1.54,11-2.35,16.52l-.13.91Z" style="fill:#1c5a7a"/><path d="M751.82,133.56l37.25-64.72h-8.74c-13.61,0-20.35.62-24.83,14.57l-.24.73-3.51-1.29.39-2.65c.73-5,1.44-9.8,2.08-14.65l.09-.64h53.56l-37.25,64.72h8.66c13.36,0,20.53-.63,24.76-14.26l.48-1,3.34,1.15-.08.6c-.74,5.51-1.54,11-2.35,16.53l-.13.88-.64,0Z" style="fill:#1c5a7a"/><path d="M645.69,133.56v-2.47l.86,0c.54,0,5.27-.47,5.27-6.49v-46c0-6-4.74-6.45-5.28-6.48l-.85,0V69.61h.9c5.69,0,12.67-1.73,17-4.2l1.35-.78v59.94c0,6,4.61,6.45,5.13,6.48l.86.06v2.45ZM657,59.29a7.8,7.8,0,1,1,7.87-7.87A7.79,7.79,0,0,1,657,59.29Z" style="fill:#1c5a7a"/><path d="M542.93,133.56v-3.49l.68-.06a19.52,19.52,0,0,0,6.15-1.27,7.73,7.73,0,0,0,3.41-2.79,11.85,11.85,0,0,0,1.67-4.83,55.85,55.85,0,0,0,.44-7.63V48.2a56.3,56.3,0,0,0-.44-7.56,11.73,11.73,0,0,0-1.67-4.9A7.8,7.8,0,0,0,549.76,33a19.77,19.77,0,0,0-6.15-1.28l-.68-.05V28.13H596c10.74,0,19,2.44,24.43,7.25a24,24,0,0,1,8.28,18.77,24,24,0,0,1-5.15,15.55,24.32,24.32,0,0,1-11.41,7.53l-.76.26.79.17c6.86,1.52,12.38,4.34,16.39,8.4a25.15,25.15,0,0,1,7.28,18.36c0,8.91-3,16.07-9,21.3s-15,7.84-27,7.84Zm30.47-16.35a22.16,22.16,0,0,0,.78,6.68,7.12,7.12,0,0,0,2.14,3.39,6.76,6.76,0,0,0,3.5,1.4A41.57,41.57,0,0,0,585,129H598.7a14.2,14.2,0,0,0,7.5-2,18.12,18.12,0,0,0,5.5-5.22,24.71,24.71,0,0,0,3.39-7.44,32.6,32.6,0,0,0,1.17-8.73A35.83,35.83,0,0,0,615,96.35a25.38,25.38,0,0,0-3.76-8.09A19.37,19.37,0,0,0,605,82.6,17.88,17.88,0,0,0,596,80.46H573.4Zm0-42.23h22.47a12.21,12.21,0,0,0,6.67-1.82,16.93,16.93,0,0,0,5-4.92,22.48,22.48,0,0,0,3.1-7,32.2,32.2,0,0,0,1-8,28.56,28.56,0,0,0-1-7.61,22.22,22.22,0,0,0-3-6.55,14.56,14.56,0,0,0-4.89-4.54,13.77,13.77,0,0,0-6.92-1.68H573.4Z" style="fill:#1c5a7a"/><path d="M493.26,133.82a8.6,8.6,0,0,1-8.44-6.37l-1.6-5.6a8,8,0,0,0-7.76-5.89,8.49,8.49,0,0,0-2,.25l-5.65,1.42a9,9,0,0,1-2.24.28,8.8,8.8,0,0,1-6.2-14.91l4.05-4.18a8.07,8.07,0,0,0,0-11.27l-4.05-4.18a8.79,8.79,0,0,1,6.2-14.91,9,9,0,0,1,2.24.28l5.65,1.41a8.07,8.07,0,0,0,9.76-5.63l1.6-5.6a8.78,8.78,0,0,1,16.89,0l1.6,5.6a8,8,0,0,0,7.76,5.88,7.87,7.87,0,0,0,2-.25l5.65-1.41a9.18,9.18,0,0,1,2.25-.28,8.8,8.8,0,0,1,6.2,14.91l-4,4.18a8.07,8.07,0,0,0,0,11.27l4,4.18a8.8,8.8,0,0,1-6.2,14.91,9.12,9.12,0,0,1-2.25-.28l-5.65-1.42a8.4,8.4,0,0,0-2-.24,8,8,0,0,0-7.76,5.88l-1.6,5.6A8.6,8.6,0,0,1,493.26,133.82Zm-17.79-18.54a8.69,8.69,0,0,1,8.41,6.38l1.6,5.6a8.1,8.1,0,0,0,15.57,0l1.6-5.6a8.69,8.69,0,0,1,8.41-6.38,8.84,8.84,0,0,1,2.17.27l5.65,1.42a8.71,8.71,0,0,0,2.08.26,8.12,8.12,0,0,0,5.71-13.75l-4.06-4.19a8.76,8.76,0,0,1,0-12.22l4.06-4.18A8.12,8.12,0,0,0,521,69.14a8.7,8.7,0,0,0-2.07.26l-5.65,1.42a8.84,8.84,0,0,1-2.17.27,8.7,8.7,0,0,1-8.41-6.38l-1.6-5.6a8.09,8.09,0,0,0-15.57,0l-1.6,5.6a8.69,8.69,0,0,1-8.41,6.38,8.84,8.84,0,0,1-2.17-.27l-5.65-1.42a8.7,8.7,0,0,0-2.07-.26,8.12,8.12,0,0,0-5.72,13.75l4.05,4.18a8.74,8.74,0,0,1,0,12.22l-4.05,4.19a8.11,8.11,0,0,0,5.71,13.74,8.64,8.64,0,0,0,2.08-.25l5.65-1.42A8.84,8.84,0,0,1,475.47,115.28Z" style="fill:#1c5a7a"/><path d="M496,133.7a8.58,8.58,0,0,1-8.15-5.65l-2.07-5.44a8.05,8.05,0,0,0-7.54-5.21,8.19,8.19,0,0,0-2.68.45l-5.5,1.9a9,9,0,0,1-3,.51,8.81,8.81,0,0,1-6.72-14.34L464,101.4a8.07,8.07,0,0,0-1-11.23l-4.4-3.81a8.79,8.79,0,0,1,5.66-15.43,9.33,9.33,0,0,1,1.48.12l5.75.92a8.22,8.22,0,0,0,1.3.1,8.09,8.09,0,0,0,7.93-6.56l1.1-5.72a8.61,8.61,0,0,1,7.86-7.09l.83,0a8.56,8.56,0,0,1,8.14,5.65l2.08,5.43A8,8,0,0,0,508.31,69a8.36,8.36,0,0,0,2.67-.45l5.51-1.91a9,9,0,0,1,3-.51,8.81,8.81,0,0,1,6.71,14.35L522.5,85a8.06,8.06,0,0,0,1,11.22l4.4,3.82a8.6,8.6,0,0,1,2.2,10.35,8.51,8.51,0,0,1-7.86,5.07,9.3,9.3,0,0,1-1.48-.11L515,114.4a8.35,8.35,0,0,0-1.31-.1,8.08,8.08,0,0,0-7.92,6.56l-1.1,5.72a8.61,8.61,0,0,1-7.86,7.08A7.81,7.81,0,0,1,496,133.7Zm-17.76-17a8.72,8.72,0,0,1,8.18,5.66l2.08,5.44A7.89,7.89,0,0,0,496,133c.25,0,.51,0,.77,0a7.93,7.93,0,0,0,7.24-6.53l1.1-5.72a8.78,8.78,0,0,1,8.6-7.12,9.67,9.67,0,0,1,1.41.11l5.75.92a8.19,8.19,0,0,0,1.38.11,8.1,8.1,0,0,0,5.21-14.22L523,96.71A8.75,8.75,0,0,1,522,84.54L525.64,80a8.12,8.12,0,0,0-6.19-13.23,8.4,8.4,0,0,0-2.74.47l-5.51,1.9A8.71,8.71,0,0,1,500.13,64l-2.08-5.44a7.9,7.9,0,0,0-7.5-5.21,6.74,6.74,0,0,0-.77,0,7.92,7.92,0,0,0-7.24,6.53l-1.11,5.71a8.71,8.71,0,0,1-10,7l-5.75-.92a9,9,0,0,0-1.36-.1,8.1,8.1,0,0,0-5.22,14.22l4.4,3.82a8.74,8.74,0,0,1,1.07,12.17l-3.68,4.52a8.13,8.13,0,0,0,6.19,13.23,8.5,8.5,0,0,0,2.75-.47l5.5-1.9a8.63,8.63,0,0,1,2.14-.46A6.56,6.56,0,0,1,478.22,116.71Z" style="fill:#1c5a7a"/><path d="M498.7,133.35a8.54,8.54,0,0,1-7.81-5l-2.54-5.23a8,8,0,0,0-7.26-4.57,8.17,8.17,0,0,0-3.33.71l-5.31,2.38a9,9,0,0,1-3.67.8,8.83,8.83,0,0,1-7.19-13.74l3.26-4.83a8.06,8.06,0,0,0-2-11.09l-4.71-3.42a8.78,8.78,0,0,1,5.1-15.89c.22,0,.45,0,.67,0l5.81.41c.2,0,.4,0,.59,0a8.07,8.07,0,0,0,8-7.26l.6-5.79a8.57,8.57,0,0,1,7.21-7.74,9,9,0,0,1,1.62-.15,8.52,8.52,0,0,1,7.8,5l2.55,5.23a8.05,8.05,0,0,0,10.59,3.85l5.31-2.37a9,9,0,0,1,3.67-.8,8.82,8.82,0,0,1,7.19,13.74l-3.26,4.82a8.07,8.07,0,0,0,2,11.1L528.35,97a8.78,8.78,0,0,1-5.1,15.89l-.68,0-5.81-.41a5.83,5.83,0,0,0-.59,0,8.08,8.08,0,0,0-8,7.27l-.6,5.79a8.61,8.61,0,0,1-7.21,7.74A9,9,0,0,1,498.7,133.35ZM481.09,117.9a8.73,8.73,0,0,1,7.88,4.95l2.54,5.24a7.88,7.88,0,0,0,7.19,4.57,8.53,8.53,0,0,0,1.5-.13,7.93,7.93,0,0,0,6.65-7.14l.6-5.8a8.75,8.75,0,0,1,8.72-7.87l.64,0,5.81.41q.32,0,.63,0A8.1,8.1,0,0,0,528,97.52l-4.72-3.41a8.76,8.76,0,0,1-2.12-12l3.26-4.82a8.13,8.13,0,0,0-6.62-12.67,8.29,8.29,0,0,0-3.39.74L509,67.69a8.73,8.73,0,0,1-11.48-4.18L495,58.28a7.86,7.86,0,0,0-7.18-4.57,8.44,8.44,0,0,0-1.5.13A7.93,7.93,0,0,0,479.68,61l-.6,5.79a8.75,8.75,0,0,1-8.71,7.88l-.65,0-5.81-.42-.63,0a8.1,8.1,0,0,0-4.7,14.66l4.72,3.41a8.76,8.76,0,0,1,2.12,12l-3.26,4.82a8.13,8.13,0,0,0,6.62,12.67,8.29,8.29,0,0,0,3.39-.74l5.31-2.37a9.36,9.36,0,0,1,2.09-.65A9.85,9.85,0,0,1,481.09,117.9Z" style="fill:#1c5a7a"/><path d="M501.4,132.75a8.63,8.63,0,0,1-7.43-4.29l-3-5a8,8,0,0,0-6.93-4,8.19,8.19,0,0,0-3.95,1L475,123.38a9,9,0,0,1-4.33,1.15,8.7,8.7,0,0,1-6.15-2.61,8.61,8.61,0,0,1-1.47-10.48l2.83-5.09A8.06,8.06,0,0,0,463,95.47l-5-3a8.78,8.78,0,0,1,4.37-16.32l5.83-.1a8.06,8.06,0,0,0,8-8l.1-5.83a8.6,8.6,0,0,1,6.51-8.34,9.27,9.27,0,0,1,2.38-.32,8.62,8.62,0,0,1,7.42,4.29l3,5a8.07,8.07,0,0,0,10.88,2.91L511.52,63a8.94,8.94,0,0,1,4.32-1.14,8.83,8.83,0,0,1,7.62,13.09L520.63,80a8.07,8.07,0,0,0,2.92,10.88l5,3a8.79,8.79,0,0,1-4.38,16.32l-5.82.09a8.08,8.08,0,0,0-8,8l-.09,5.82a8.6,8.6,0,0,1-6.51,8.34A9,9,0,0,1,501.4,132.75Zm-17.35-13.91a8.71,8.71,0,0,1,7.52,4.28l3,5a7.94,7.94,0,0,0,6.84,4,8.33,8.33,0,0,0,2.2-.3,7.93,7.93,0,0,0,6-7.69l.1-5.82a8.74,8.74,0,0,1,8.64-8.64l5.82-.1a8.1,8.1,0,0,0,4-15l-5-3A8.76,8.76,0,0,1,520,79.69l2.84-5.1a8.15,8.15,0,0,0-7-12.07,8.3,8.3,0,0,0-4,1.06l-5.09,2.83A8.74,8.74,0,0,1,495,63.25l-3-5a8,8,0,0,0-6.85-4,8.44,8.44,0,0,0-2.2.3,7.94,7.94,0,0,0-6,7.69l-.09,5.82a8.74,8.74,0,0,1-8.64,8.64l-5.82.09a8.1,8.1,0,0,0-4,15l5,3a8.74,8.74,0,0,1,3.16,11.8l-2.83,5.09a8.14,8.14,0,0,0,7,12.07,8.13,8.13,0,0,0,4-1.06l5.09-2.82a8.68,8.68,0,0,1,2-.83A9.1,9.1,0,0,1,484.05,118.84Z" style="fill:#1c5a7a"/><path d="M504.06,131.93a8.64,8.64,0,0,1-7-3.66l-3.41-4.72a8.08,8.08,0,0,0-11.1-2l-4.82,3.26a8.85,8.85,0,0,1-4.94,1.55,8.84,8.84,0,0,1-8-12.41l2.38-5.32a8.07,8.07,0,0,0-3.86-10.58l-5.24-2.55A8.78,8.78,0,0,1,461,78.92l5.79-.61A8.06,8.06,0,0,0,474,69.68l-.41-5.8A8.6,8.6,0,0,1,479.37,55a9,9,0,0,1,3.1-.56,8.59,8.59,0,0,1,7,3.66l3.42,4.71a8.08,8.08,0,0,0,11.1,2l4.82-3.26A8.78,8.78,0,0,1,513.76,60a8.86,8.86,0,0,1,8,12.42l-2.38,5.31a8.07,8.07,0,0,0,3.86,10.59l5.23,2.55a8.78,8.78,0,0,1-2.93,16.63l-5.79.6a8.07,8.07,0,0,0-7.24,8.63l.41,5.81a8.6,8.6,0,0,1-5.76,8.88A9.06,9.06,0,0,1,504.06,131.93Zm-17-12.42a8.79,8.79,0,0,1,7.1,3.64l3.42,4.72a7.94,7.94,0,0,0,6.46,3.37,8.17,8.17,0,0,0,2.87-.52,7.91,7.91,0,0,0,5.3-8.18l-.41-5.81a8.74,8.74,0,0,1,7.86-9.36l5.79-.6a8.1,8.1,0,0,0,2.7-15.34l-5.23-2.54a8.75,8.75,0,0,1-4.18-11.49l2.37-5.31a8.16,8.16,0,0,0-7.37-11.45,8.15,8.15,0,0,0-4.56,1.44l-4.82,3.26a8.76,8.76,0,0,1-12-2.12l-3.41-4.72a8,8,0,0,0-6.46-3.37,8.39,8.39,0,0,0-2.87.51,7.94,7.94,0,0,0-5.31,8.19l.42,5.81A8.74,8.74,0,0,1,466.85,79l-5.79.61a8.1,8.1,0,0,0-2.71,15.34l5.24,2.54A8.75,8.75,0,0,1,467.77,109l-2.37,5.32a8.16,8.16,0,0,0,7.37,11.45,8.15,8.15,0,0,0,4.56-1.44l4.82-3.26a9.2,9.2,0,0,1,2-1A8.62,8.62,0,0,1,487.08,119.51Z" style="fill:#1c5a7a"/><path d="M506.64,130.87a8.58,8.58,0,0,1-6.55-3.07l-3.82-4.39a8.06,8.06,0,0,0-6.11-2.81,8.16,8.16,0,0,0-5.11,1.82l-4.52,3.67a8.78,8.78,0,0,1-13.84-9.68l1.91-5.51a8.07,8.07,0,0,0-4.77-10.21l-5.44-2.08a8.78,8.78,0,0,1,1.48-16.83l5.72-1.1a8.08,8.08,0,0,0,6.46-9.23l-.92-5.75a8.61,8.61,0,0,1,5-9.35,9,9,0,0,1,3.79-.86,8.6,8.6,0,0,1,6.56,3.07l3.81,4.4a8.06,8.06,0,0,0,11.23,1L506,60.27a8.73,8.73,0,0,1,5.52-2,8.85,8.85,0,0,1,5.05,1.63A8.6,8.6,0,0,1,519.83,70l-1.9,5.51a8.06,8.06,0,0,0,4.76,10.2l5.44,2.08a8.79,8.79,0,0,1-1.47,16.84l-5.72,1.1a8.07,8.07,0,0,0-6.46,9.23l.92,5.75a8.6,8.6,0,0,1-5,9.34A8.93,8.93,0,0,1,506.64,130.87Zm-16.48-11a8.75,8.75,0,0,1,6.63,3l3.82,4.4a7.92,7.92,0,0,0,6,2.82,8.22,8.22,0,0,0,3.5-.79,7.93,7.93,0,0,0,4.57-8.62L513.8,115a8.76,8.76,0,0,1,7-10l5.72-1.1a8.1,8.1,0,0,0,1.36-15.51l-5.44-2.08a8.76,8.76,0,0,1-5.17-11.08l1.91-5.5a7.94,7.94,0,0,0-3-9.28A8.09,8.09,0,0,0,511.52,59a8,8,0,0,0-5.09,1.86l-4.52,3.66a8.75,8.75,0,0,1-12.17-1.06L485.92,59a7.94,7.94,0,0,0-6-2.83,8.2,8.2,0,0,0-3.5.8,7.91,7.91,0,0,0-4.57,8.61l.91,5.75a8.73,8.73,0,0,1-7,10L460,82.46A8.1,8.1,0,0,0,458.64,98l5.44,2.08a8.74,8.74,0,0,1,5.16,11.07l-1.9,5.51a7.94,7.94,0,0,0,3,9.28,8.14,8.14,0,0,0,4.66,1.51,8,8,0,0,0,5.09-1.86l4.52-3.67a9.4,9.4,0,0,1,1.85-1.16A8.75,8.75,0,0,1,490.16,119.91Z" style="fill:#1c5a7a"/><path d="M509.14,129.59a8.7,8.7,0,0,1-6.06-2.51l-4.18-4a8.05,8.05,0,0,0-11.27,0l-4.18,4a8.72,8.72,0,0,1-6.06,2.51,9,9,0,0,1-4.44-1.21,8.61,8.61,0,0,1-4.13-9.75l1.41-5.65a8.05,8.05,0,0,0-5.63-9.75l-5.6-1.6a8.78,8.78,0,0,1,0-16.89l5.6-1.6a8.08,8.08,0,0,0,5.64-9.76l-1.42-5.64A8.61,8.61,0,0,1,473,58a8.86,8.86,0,0,1,4.44-1.22,8.73,8.73,0,0,1,6.06,2.52l4.18,4.05a8.08,8.08,0,0,0,11.27,0l4.18-4.05a8.73,8.73,0,0,1,6.06-2.52A8.89,8.89,0,0,1,513.58,58a8.6,8.6,0,0,1,4.13,9.74l-1.42,5.65a8.08,8.08,0,0,0,5.64,9.76l5.6,1.6a8.78,8.78,0,0,1,0,16.89l-5.6,1.6a8.07,8.07,0,0,0-5.64,9.75l1.42,5.65a8.59,8.59,0,0,1-4.13,9.74A8.89,8.89,0,0,1,509.14,129.59ZM477.38,57.46a8.19,8.19,0,0,0-4.09,1.13,7.94,7.94,0,0,0-3.81,9l1.42,5.65a8.73,8.73,0,0,1-6.11,10.58l-5.6,1.6a8.09,8.09,0,0,0,0,15.57l5.6,1.6a8.74,8.74,0,0,1,6.11,10.58l-1.42,5.65a7.94,7.94,0,0,0,3.81,9,8.2,8.2,0,0,0,4.1,1.13,8,8,0,0,0,5.58-2.33l4.18-4a8.56,8.56,0,0,1,1.75-1.32,8.73,8.73,0,0,1,10.47,1.32l4.19,4a8,8,0,0,0,5.58,2.33,8.2,8.2,0,0,0,4.1-1.13,7.94,7.94,0,0,0,3.81-9l-1.42-5.65a8.74,8.74,0,0,1,6.11-10.58l5.6-1.6a8.1,8.1,0,0,0,0-15.57l-5.6-1.6a8.74,8.74,0,0,1-6.11-10.58l1.42-5.65a7.94,7.94,0,0,0-3.81-9,8.2,8.2,0,0,0-4.1-1.13,8.06,8.06,0,0,0-5.58,2.32l-4.19,4a8.74,8.74,0,0,1-12.22,0l-4.18-4A8,8,0,0,0,477.38,57.46Z" style="fill:#1c5a7a"/><path d="M479.88,130.87a8.92,8.92,0,0,1-3.79-.86,8.59,8.59,0,0,1-5-9.34l.92-5.75a8.07,8.07,0,0,0-6.46-9.23l-5.72-1.1a8.79,8.79,0,0,1-1.48-16.84l5.44-2.08a8.06,8.06,0,0,0,4.77-10.2L466.69,70A8.6,8.6,0,0,1,470,59.9a8.59,8.59,0,0,1,10.57.37l4.52,3.67a8,8,0,0,0,11.22-1l3.82-4.4a8.57,8.57,0,0,1,6.56-3.06,9,9,0,0,1,3.78.85,8.62,8.62,0,0,1,5,9.35l-.92,5.75a8.07,8.07,0,0,0,6.46,9.23l5.72,1.1a8.79,8.79,0,0,1,1.47,16.83l-5.44,2.08a8.08,8.08,0,0,0-4.76,10.21l1.9,5.51a8.59,8.59,0,0,1-3.26,10.06,8.78,8.78,0,0,1-5.05,1.63,8.65,8.65,0,0,1-5.52-2l-4.53-3.67a8.06,8.06,0,0,0-11.22,1l-3.81,4.4A8.61,8.61,0,0,1,479.88,130.87ZM475,59a8.09,8.09,0,0,0-4.66,1.51,7.94,7.94,0,0,0-3,9.28l1.9,5.5a8.74,8.74,0,0,1-5.16,11.08l-5.44,2.08A8.09,8.09,0,0,0,460,103.91l5.71,1.1a8.75,8.75,0,0,1,7,10l-.91,5.75a7.92,7.92,0,0,0,4.57,8.62,8.19,8.19,0,0,0,3.5.79,7.92,7.92,0,0,0,6-2.82l3.82-4.4a8.74,8.74,0,0,1,12.17-1.07l4.52,3.67a8,8,0,0,0,5.09,1.86,8.16,8.16,0,0,0,4.66-1.51,7.94,7.94,0,0,0,3-9.28l-1.91-5.51a8.74,8.74,0,0,1,5.17-11.07L527.89,98a8.1,8.1,0,0,0-1.36-15.51l-5.72-1.11a8.75,8.75,0,0,1-7-10l.92-5.75A7.94,7.94,0,0,0,510.15,57a8.24,8.24,0,0,0-3.5-.8,7.94,7.94,0,0,0-6,2.83l-3.82,4.4a8.74,8.74,0,0,1-6.63,3,8.85,8.85,0,0,1-5.54-2L480.1,60.8A8.05,8.05,0,0,0,475,59Z" style="fill:#1c5a7a"/><path d="M482.47,131.93a9.12,9.12,0,0,1-3.11-.56,8.6,8.6,0,0,1-5.75-8.88l.41-5.81a8.07,8.07,0,0,0-7.24-8.63l-5.79-.6a8.78,8.78,0,0,1-2.94-16.63l5.24-2.55a8.07,8.07,0,0,0,3.86-10.59l-2.38-5.31a8.62,8.62,0,0,1,2.37-10.32,8.6,8.6,0,0,1,10.57-.54l4.82,3.26a8.08,8.08,0,0,0,11.1-2L497,58.1a8.62,8.62,0,0,1,7-3.66,9.06,9.06,0,0,1,3.1.56,8.61,8.61,0,0,1,5.76,8.88l-.41,5.8a8,8,0,0,0,7.24,8.63l5.79.61a8.78,8.78,0,0,1,2.93,16.63l-5.23,2.55a8.06,8.06,0,0,0-3.86,10.58l2.38,5.32a8.85,8.85,0,0,1-8,12.41,8.85,8.85,0,0,1-4.94-1.55L504,121.6a8.06,8.06,0,0,0-11.1,2l-3.42,4.72A8.61,8.61,0,0,1,482.47,131.93Zm-9.7-71.29a8.16,8.16,0,0,0-7.37,11.45l2.37,5.31a8.74,8.74,0,0,1-4.18,11.49l-5.24,2.54a8.1,8.1,0,0,0,2.71,15.34l5.79.6a8.76,8.76,0,0,1,7.86,9.36l-.42,5.81a7.93,7.93,0,0,0,5.31,8.18,8.26,8.26,0,0,0,2.87.52,8,8,0,0,0,6.46-3.37l3.41-4.72a9.09,9.09,0,0,1,1.49-1.6,8.76,8.76,0,0,1,10.55-.52l4.82,3.26a7.95,7.95,0,0,0,9.74-.5,8,8,0,0,0,2.19-9.51L518.76,109a8.73,8.73,0,0,1,4.18-11.48l5.23-2.54a8.1,8.1,0,0,0-2.7-15.34l-5.79-.6a8.75,8.75,0,0,1-7.86-9.36l.41-5.81a7.93,7.93,0,0,0-5.3-8.19,8.39,8.39,0,0,0-2.87-.51,8,8,0,0,0-6.46,3.37l-3.42,4.72a8.75,8.75,0,0,1-12,2.12l-4.82-3.26A8.12,8.12,0,0,0,472.77,60.64Z" style="fill:#1c5a7a"/><path d="M485.13,132.75a8.86,8.86,0,0,1-2.38-.32,8.59,8.59,0,0,1-6.51-8.34l-.1-5.82a8.07,8.07,0,0,0-8-8l-5.83-.09A8.79,8.79,0,0,1,458,93.89l5-3A8.07,8.07,0,0,0,465.89,80l-2.83-5.09a8.85,8.85,0,0,1,7.62-13.1A9,9,0,0,1,475,63l5.09,2.83A8,8,0,0,0,491,62.9l3-5a8.65,8.65,0,0,1,7.43-4.29,9.27,9.27,0,0,1,2.38.32,8.61,8.61,0,0,1,6.51,8.34l.09,5.83a8.07,8.07,0,0,0,8,8l5.82.1a8.78,8.78,0,0,1,4.38,16.31l-5,3a8.07,8.07,0,0,0-2.92,10.88l2.83,5.09A8.61,8.61,0,0,1,522,121.92a8.71,8.71,0,0,1-6.16,2.61,8.85,8.85,0,0,1-4.32-1.15l-5.09-2.83a8.22,8.22,0,0,0-3.95-1,8,8,0,0,0-6.93,4l-3,5A8.6,8.6,0,0,1,485.13,132.75ZM470.69,62.52A8,8,0,0,0,465,64.93a8,8,0,0,0-1.35,9.67l2.83,5.08a8.75,8.75,0,0,1-3.16,11.81l-5,3a8.1,8.1,0,0,0,4,15l5.82.1a8.75,8.75,0,0,1,8.64,8.64l.09,5.82a7.94,7.94,0,0,0,6,7.69,8.4,8.4,0,0,0,2.21.3,8,8,0,0,0,6.84-4l3-5a9,9,0,0,1,1.34-1.72,8.65,8.65,0,0,1,6.18-2.56,8.77,8.77,0,0,1,4.28,1.12l5.09,2.83a8.29,8.29,0,0,0,4,1,8.14,8.14,0,0,0,7-12.07L520,106.68a8.75,8.75,0,0,1,3.17-11.8l5-3a8.1,8.1,0,0,0-4-15l-5.82-.09a8.75,8.75,0,0,1-8.64-8.64l-.1-5.82a7.91,7.91,0,0,0-6-7.69,8.33,8.33,0,0,0-2.2-.3,8,8,0,0,0-6.84,4l-3,5a8.69,8.69,0,0,1-7.52,4.28,8.83,8.83,0,0,1-4.29-1.12l-5.09-2.83A8.24,8.24,0,0,0,470.69,62.52Z" style="fill:#1c5a7a"/><path d="M487.83,133.35a9,9,0,0,1-1.62-.15,8.59,8.59,0,0,1-7.21-7.74l-.6-5.79a8.08,8.08,0,0,0-8-7.27,5.68,5.68,0,0,0-.59,0l-5.82.41-.67,0a8.79,8.79,0,0,1-5.1-15.9l4.71-3.41a8.07,8.07,0,0,0,2-11.1l-3.26-4.82a8.82,8.82,0,0,1,7.19-13.74,9,9,0,0,1,3.67.8l5.31,2.38a8.16,8.16,0,0,0,3.32.71,8.05,8.05,0,0,0,7.27-4.57L490.89,58A8.56,8.56,0,0,1,498.7,53a9,9,0,0,1,1.62.15,8.6,8.6,0,0,1,7.21,7.74l.6,5.79a8.07,8.07,0,0,0,8,7.26,5.82,5.82,0,0,0,.59,0l5.81-.41c.23,0,.46,0,.68,0a8.78,8.78,0,0,1,5.1,15.89l-4.72,3.42a8.07,8.07,0,0,0-2,11.09l3.26,4.83a8.83,8.83,0,0,1-7.19,13.74,9,9,0,0,1-3.67-.8l-5.31-2.38a8.24,8.24,0,0,0-3.33-.71,8,8,0,0,0-7.26,4.57l-2.55,5.23a8.55,8.55,0,0,1-7.8,5Zm-17.47-21.63a8.75,8.75,0,0,1,8.72,7.87l.6,5.8a7.93,7.93,0,0,0,6.65,7.14,8.44,8.44,0,0,0,1.5.13,7.85,7.85,0,0,0,7.18-4.57l2.55-5.24a9.43,9.43,0,0,1,1.19-1.83,8.71,8.71,0,0,1,6.69-3.12,8.91,8.91,0,0,1,3.61.77l5.31,2.38a8.21,8.21,0,0,0,3.38.74,8.13,8.13,0,0,0,6.63-12.67l-3.26-4.82a8.76,8.76,0,0,1,2.12-12L528,88.85a8.1,8.1,0,0,0-4.7-14.66l-.63,0-5.81.42-.64,0a8.76,8.76,0,0,1-8.72-7.88l-.6-5.79a7.92,7.92,0,0,0-6.65-7.14,8.61,8.61,0,0,0-1.5-.13,7.9,7.9,0,0,0-7.19,4.56L489,63.51a8.77,8.77,0,0,1-11.49,4.18l-5.31-2.38a8.44,8.44,0,0,0-3.39-.73,8.13,8.13,0,0,0-6.62,12.67l3.26,4.82a8.74,8.74,0,0,1-2.12,12l-4.72,3.42a8.1,8.1,0,0,0,4.7,14.66l.63,0,5.81-.42Z" style="fill:#1c5a7a"/><path d="M490.55,133.7a7.81,7.81,0,0,1-.83,0,8.61,8.61,0,0,1-7.86-7.08l-1.1-5.72a8.1,8.1,0,0,0-7.92-6.57,8.37,8.37,0,0,0-1.31.11l-5.75.92a9.33,9.33,0,0,1-1.48.12,8.52,8.52,0,0,1-7.86-5.08,8.61,8.61,0,0,1,2.2-10.35L463,96.2A8.08,8.08,0,0,0,464,85l-3.67-4.52a8.81,8.81,0,0,1,6.72-14.35,9,9,0,0,1,3,.51l5.5,1.91a8.19,8.19,0,0,0,2.68.45,8,8,0,0,0,7.54-5.22l2.07-5.43A8.58,8.58,0,0,1,496,52.67c.28,0,.55,0,.83,0a8.61,8.61,0,0,1,7.87,7.09l1.1,5.72a8.08,8.08,0,0,0,7.92,6.56A8.35,8.35,0,0,0,515,72l5.75-.92a9.3,9.3,0,0,1,1.47-.12,8.79,8.79,0,0,1,5.66,15.43l-4.39,3.81a8.08,8.08,0,0,0-1,11.23l3.66,4.52a8.8,8.8,0,0,1-6.71,14.34,9.11,9.11,0,0,1-3-.51l-5.5-1.9a8.18,8.18,0,0,0-2.67-.45,8,8,0,0,0-7.54,5.21l-2.08,5.44A8.56,8.56,0,0,1,490.55,133.7Zm-17.71-20.09a8.77,8.77,0,0,1,8.59,7.12l1.11,5.72a7.92,7.92,0,0,0,7.24,6.53c.26,0,.52,0,.77,0a7.9,7.9,0,0,0,7.5-5.21l2.08-5.44a9.1,9.1,0,0,1,1-1.93,8.77,8.77,0,0,1,7.16-3.73,8.9,8.9,0,0,1,2.89.49l5.51,1.91a8.4,8.4,0,0,0,2.74.47,8.12,8.12,0,0,0,6.19-13.23L522,101.83A8.73,8.73,0,0,1,523,89.66l4.4-3.82a8.1,8.1,0,0,0-5.22-14.22,9.21,9.21,0,0,0-1.37.1l-5.75.93a9.57,9.57,0,0,1-1.41.11,8.8,8.8,0,0,1-8.6-7.13L504,59.92a7.92,7.92,0,0,0-7.25-6.53,6.45,6.45,0,0,0-.76,0,7.9,7.9,0,0,0-7.5,5.21L486.4,64a8.76,8.76,0,0,1-11.08,5.16l-5.5-1.9a8.5,8.5,0,0,0-2.75-.47A8.13,8.13,0,0,0,460.88,80l3.68,4.52a8.73,8.73,0,0,1-1.07,12.17l-4.4,3.81a8,8,0,0,0-2,9.55,8,8,0,0,0,8.61,4.57l5.75-.92A9.81,9.81,0,0,1,472.84,113.61Z" style="fill:#1c5a7a"/><path d="M421.44,133.56c-15.43,0-23.26-7.88-23.26-23.42V28.06h14.44v25.8H441v12.6H412.62v45.22c0,6.16,3.12,9.28,9.29,9.28h20.65v7.61l-6.91,5Z" style="fill:#1c5a7a"/><path d="M345.56,134.36a33.25,33.25,0,0,1-31.67-22.94c-.1-.31-.19-.61-.29-.93-.27-.92-.5-1.87-.7-2.83a33,33,0,0,1-.66-6.62V53.67h14.51V101a18.81,18.81,0,0,0,37.62,0V53.67h14.5V101a33,33,0,0,1-.66,6.62c-.2,1-.43,1.91-.7,2.83-.1.32-.19.62-.29.93A33.23,33.23,0,0,1,345.56,134.36Z" style="fill:#1c5a7a"/><path d="M201.93,134.36l10.87-26.83A61.27,61.27,0,0,0,226,115l-7.38,19.34Z" style="fill:#1c5a7a"/><path d="M288.58,134.36,282.16,118l-1.26-3.32-.21.09a72.48,72.48,0,0,1-54.09,0l4.93-13a59.61,59.61,0,0,0,44.26,0l.21-.09-2.59-6.82-.05-.31-5.79-15.15h0L254,44h-.66l-19.8,50.9h.12l-2.42,6.36a44.38,44.38,0,0,1-12.67-8l26.91-66.41h16.36l43.41,107.54Z" style="fill:#1c5a7a"/></g></svg>