<svg id="KSDrafter_Layer" data-name="KSDrafter Layer" xmlns="http://www.w3.org/2000/svg" xmlns:xlink="http://www.w3.org/1999/xlink" viewBox="0 0 417.23 416.99"><defs><radialGradient id="radial-gradient" cx="208.61" cy="208.61" r="208.61" gradientUnits="userSpaceOnUse"><stop offset="0.02" stop-color="#02233b"/><stop offset="1" stop-color="#012"/></radialGradient><radialGradient id="radial-gradient-2" cx="208.61" cy="208.61" fx="44.24255886520095" fy="50.37122243728126" r="228.16" gradientUnits="userSpaceOnUse"><stop offset="0.02" stop-color="#fff"/><stop offset="1" stop-color="#86878b"/></radialGradient></defs><g id="Color_Bento_Collage" data-name="Color Bento Collage"><circle cx="208.61" cy="208.61" r="208.61" style="fill:url(#radial-gradient)"/><path d="M213.37,355.78V61.44h75.14c24.06,0,40.05,4.78,50.31,15s15,26.25,15,50.31V290.43c0,24.06-4.78,40.05-15,50.31s-26.25,15-50.31,15Zm17.38-17.38h57.76c19.8,0,30.79-2.91,37.92-10s10.05-18.12,10.05-37.92V217.3H230.75Zm0-138.48H336.48V126.79c0-19.61-3-31-10-38s-18.36-10-38-10H230.75ZM186.49,355.78V217.3H80.75v73.13c0,19.8,2.91,30.78,10,37.92s18.12,10,37.91,10h41.8v17.38h-41.8c-24.06,0-40.05-4.78-50.3-15s-15-26.25-15-50.31V126.79c0-24.06,4.77-40.05,15-50.31s26.24-15,50.3-15h75.16V355.78Zm-57.78-277c-19.79,0-30.78,2.92-37.91,10.05s-10,18.12-10,37.92v73.13H186.49V78.82Z" style="fill:url(#radial-gradient-2)"/></g></svg>