<svg id="KSDrafter_Layer" data-name="KSDrafter Layer" xmlns="http://www.w3.org/2000/svg" viewBox="0 0 807.87 161.17"><g id="Color_Bento_Collage" data-name="Color Bento Collage"><path d="M493.26,66.55a26.64,26.64,0,1,1-26.63,26.63,26.67,26.67,0,0,1,26.63-26.63m0-14A40.64,40.64,0,1,0,533.9,93.18a40.63,40.63,0,0,0-40.64-40.63Z" style="fill:#1c5a7a"/><path d="M154.11,8.89C148.55,3.32,139.87.73,126.81.73H86V160.44h40.77c13.06,0,21.74-2.58,27.3-8.15s8.16-14.25,8.16-27.3V36.19C162.27,23.14,159.67,14.46,154.11,8.89ZM152.84,125c0,10.74-1.58,16.69-5.45,20.57S137.56,151,126.81,151H95.47V85.3h57.37Zm0-49.12H95.47V10.15h31.34c10.64,0,16.8,1.63,20.61,5.43s5.42,10,5.42,20.61Z" style="fill:#1c5a7a;stroke:#1c5a7a;stroke-miterlimit:10;stroke-width:2px"/><path d="M37.1.73C24,.73,15.37,3.32,9.8,8.89S1.64,23.14,1.64,36.19V125c0,13,2.59,21.73,8.16,27.3s14.24,8.15,27.3,8.15H59.78V151H37.1c-10.74,0-16.7-1.58-20.58-5.45s-5.45-9.83-5.45-20.57V85.3H68.45v75.14h9.43V.73ZM68.45,75.87H11.07V36.19c0-10.75,1.58-16.71,5.45-20.59s9.83-5.45,20.58-5.45H68.45Z" style="fill:#1c5a7a;stroke:#1c5a7a;stroke-miterlimit:10;stroke-width:2px"/><path d="M684.51,133.56l37.25-64.72H713c-13.61,0-20.35.62-24.83,14.57l-.24.73-3.51-1.29.37-2.5c.73-5,1.45-9.86,2.1-14.8l.09-.64h53.56l-37.25,64.72H712c13.35,0,20.52-.63,24.75-14.26l.48-1,3.34,1.15-.08.6c-.73,5.51-1.54,11-2.35,16.52l-.13.91Z" style="fill:#1c5a7a"/><path d="M751.82,133.56l37.25-64.72h-8.74c-13.61,0-20.35.62-24.83,14.57l-.24.73-3.51-1.29.39-2.65c.73-5,1.44-9.8,2.08-14.65l.09-.64h53.56l-37.25,64.72h8.66c13.36,0,20.53-.63,24.76-14.26l.48-1,3.34,1.15-.08.6c-.74,5.51-1.54,11-2.35,16.53l-.13.88-.64,0Z" style="fill:#1c5a7a"/><path d="M645.69,133.56v-2.47l.86,0c.54,0,5.27-.47,5.27-6.49v-46c0-6-4.74-6.45-5.28-6.48l-.85,0V69.61h.9c5.69,0,12.67-1.73,17-4.2l1.35-.78v59.94c0,6,4.61,6.45,5.13,6.48l.86.06v2.45ZM657,59.29a7.8,7.8,0,1,1,7.87-7.87A7.79,7.79,0,0,1,657,59.29Z" style="fill:#1c5a7a"/><path d="M542.93,133.56v-3.49l.68-.06a19.52,19.52,0,0,0,6.15-1.27,7.73,7.73,0,0,0,3.41-2.79,11.85,11.85,0,0,0,1.67-4.83,55.85,55.85,0,0,0,.44-7.63V48.2a56.3,56.3,0,0,0-.44-7.56,11.73,11.73,0,0,0-1.67-4.9A7.8,7.8,0,0,0,549.76,33a19.77,19.77,0,0,0-6.15-1.28l-.68-.05V28.13H596c10.74,0,19,2.44,24.43,7.25a24,24,0,0,1,8.28,18.77,24,24,0,0,1-5.15,15.55,24.32,24.32,0,0,1-11.41,7.53l-.76.26.79.17c6.86,1.52,12.38,4.34,16.39,8.4a25.15,25.15,0,0,1,7.28,18.36c0,8.91-3,16.07-9,21.3s-15,7.84-27,7.84Zm30.47-16.35a22.16,22.16,0,0,0,.78,6.68,7.12,7.12,0,0,0,2.14,3.39,6.76,6.76,0,0,0,3.5,1.4A41.57,41.57,0,0,0,585,129H598.7a14.2,14.2,0,0,0,7.5-2,18.12,18.12,0,0,0,5.5-5.22,24.71,24.71,0,0,0,3.39-7.44,32.6,32.6,0,0,0,1.17-8.73A35.83,35.83,0,0,0,615,96.35a25.38,25.38,0,0,0-3.76-8.09A19.37,19.37,0,0,0,605,82.6,17.88,17.88,0,0,0,596,80.46H573.4Zm0-42.23h22.47a12.21,12.21,0,0,0,6.67-1.82,16.93,16.93,0,0,0,5-4.92,22.48,22.48,0,0,0,3.1-7,32.2,32.2,0,0,0,1-8,28.56,28.56,0,0,0-1-7.61,22.22,22.22,0,0,0-3-6.55,14.56,14.56,0,0,0-4.89-4.54,13.77,13.77,0,0,0-6.92-1.68H573.4Z" style="fill:#1c5a7a"/><path d="M421.44,133.56c-15.43,0-23.26-7.88-23.26-23.42V28.06h14.44v25.8H441v12.6H412.62v45.22c0,6.16,3.12,9.28,9.29,9.28h20.65v7.61l-6.91,5Z" style="fill:#1c5a7a"/><path d="M345.56,134.36a33.25,33.25,0,0,1-31.67-22.94c-.1-.31-.19-.61-.29-.93-.27-.92-.5-1.87-.7-2.83a33,33,0,0,1-.66-6.62V53.67h14.51V101a18.81,18.81,0,0,0,37.62,0V53.67h14.5V101a33,33,0,0,1-.66,6.62c-.2,1-.43,1.91-.7,2.83-.1.32-.19.62-.29.93A33.23,33.23,0,0,1,345.56,134.36Z" style="fill:#1c5a7a"/><path d="M201.93,134.36l10.87-26.83A61.27,61.27,0,0,0,226,115l-7.38,19.34Z" style="fill:#1c5a7a"/><path d="M288.58,134.36,282.16,118l-1.26-3.32-.21.09a72.48,72.48,0,0,1-54.09,0l4.93-13a59.61,59.61,0,0,0,44.26,0l.21-.09-2.59-6.82-.05-.31-5.79-15.15h0L254,44h-.66l-19.8,50.9h.12l-2.42,6.36a44.38,44.38,0,0,1-12.67-8l26.91-66.41h16.36l43.41,107.54Z" style="fill:#1c5a7a"/></g></svg>