<svg width="48" height="48" viewBox="0 0 48 48" fill="none" xmlns="http://www.w3.org/2000/svg">
<mask id="path-1-inside-1_737_5047" fill="white">
<path d="M0 24C0 10.7452 10.7452 0 24 0C37.2548 0 48 10.7452 48 24C48 37.2548 37.2548 48 24 48C10.7452 48 0 37.2548 0 24Z"/>
</mask>
<path d="M24 47C11.2975 47 1 36.7025 1 24H-1C-1 37.8071 10.1929 49 24 49V47ZM47 24C47 36.7025 36.7025 47 24 47V49C37.8071 49 49 37.8071 49 24H47ZM24 1C36.7025 1 47 11.2975 47 24H49C49 10.1929 37.8071 -1 24 -1V1ZM24 -1C10.1929 -1 -1 10.1929 -1 24H1C1 11.2975 11.2975 1 24 1V-1Z" fill="#C1DFFF" mask="url(#path-1-inside-1_737_5047)"/>
<path d="M28.4999 15.6665H25.9999C24.8949 15.6665 23.835 16.1055 23.0536 16.8869C22.2722 17.6683 21.8333 18.7281 21.8333 19.8332V22.3332H19.3333V25.6665H21.8333V32.3332H25.1666V25.6665H27.6666L28.4999 22.3332H25.1666V19.8332C25.1666 19.6122 25.2544 19.4002 25.4107 19.2439C25.5669 19.0876 25.7789 18.9998 25.9999 18.9998H28.4999V15.6665Z" stroke="#C1DFFF" stroke-width="1.66667" stroke-linecap="round" stroke-linejoin="round"/>
</svg>
