<svg width="49" height="48" viewBox="0 0 49 48" fill="none" xmlns="http://www.w3.org/2000/svg">
<mask id="path-1-inside-1_737_5050" fill="white">
<path d="M0.390137 24C0.390137 10.7452 11.1353 0 24.3901 0C37.645 0 48.3901 10.7452 48.3901 24C48.3901 37.2548 37.645 48 24.3901 48C11.1353 48 0.390137 37.2548 0.390137 24Z"/>
</mask>
<path d="M24.3901 47C11.6876 47 1.39014 36.7025 1.39014 24H-0.609863C-0.609863 37.8071 10.583 49 24.3901 49V47ZM47.3901 24C47.3901 36.7025 37.0927 47 24.3901 47V49C38.1973 49 49.3901 37.8071 49.3901 24H47.3901ZM24.3901 1C37.0927 1 47.3901 11.2975 47.3901 24H49.3901C49.3901 10.1929 38.1973 -1 24.3901 -1V1ZM24.3901 -1C10.583 -1 -0.609863 10.1929 -0.609863 24H1.39014C1.39014 11.2975 11.6876 1 24.3901 1V-1Z" fill="#C1DFFF" mask="url(#path-1-inside-1_737_5050)"/>
<path d="M28.5569 15.6665H20.2235C17.9224 15.6665 16.0569 17.532 16.0569 19.8332V28.1665C16.0569 30.4677 17.9224 32.3332 20.2235 32.3332H28.5569C30.8581 32.3332 32.7236 30.4677 32.7236 28.1665V19.8332C32.7236 17.532 30.8581 15.6665 28.5569 15.6665Z" stroke="#C1DFFF" stroke-width="1.66667" stroke-linecap="round" stroke-linejoin="round"/>
<path d="M27.7232 23.4753C27.826 24.1688 27.7076 24.8771 27.3846 25.4994C27.0617 26.1218 26.5508 26.6264 25.9245 26.9416C25.2983 27.2569 24.5885 27.3666 23.8963 27.2552C23.2041 27.1438 22.5646 26.817 22.0688 26.3212C21.5731 25.8255 21.2463 25.186 21.1349 24.4938C21.0235 23.8015 21.1332 23.0918 21.4484 22.4656C21.7636 21.8393 22.2683 21.3284 22.8906 21.0055C23.513 20.6825 24.2213 20.5641 24.9148 20.6669C25.6223 20.7718 26.2772 21.1015 26.7829 21.6072C27.2886 22.1129 27.6183 22.7678 27.7232 23.4753Z" stroke="#C1DFFF" stroke-width="1.66667" stroke-linecap="round" stroke-linejoin="round"/>
<path d="M28.9734 19.4165H28.9817" stroke="#C1DFFF" stroke-width="1.66667" stroke-linecap="round" stroke-linejoin="round"/>
</svg>
