<svg width="54" height="75" viewBox="0 0 54 75" fill="none" xmlns="http://www.w3.org/2000/svg">
<path d="M24 1.73205C25.8564 0.660254 28.1436 0.660254 30 1.73205L47.3827 11.7679C49.2391 12.8397 50.3827 14.8205 50.3827 16.9641V37.0359C50.3827 39.1795 49.2391 41.1603 47.3827 42.2321L30 52.2679C28.1436 53.3397 25.8564 53.3397 24 52.2679L6.61731 42.2321C4.76091 41.1603 3.61731 39.1795 3.61731 37.0359V16.9641C3.61731 14.8205 4.76091 12.8397 6.61731 11.7679L24 1.73205Z" fill="url(#paint0_linear_816_2038)"/>
<path d="M18.5 20L20.7981 24.2019L25 26.5L20.7981 28.7981L18.5 33L16.2019 28.7981L12 26.5L16.2019 24.2019L18.5 20Z" fill="white" fill-opacity="0.8"/>
<path d="M36.5 20L38.7981 24.2019L43 26.5L38.7981 28.7981L36.5 33L34.2019 28.7981L30 26.5L34.2019 24.2019L36.5 20Z" fill="white" fill-opacity="0.8"/>
<path d="M5.33638 70V59.8182H6.8726V68.6776H11.4862V70H5.33638ZM16.4106 70.1541C15.6582 70.1541 15.0103 69.9934 14.4667 69.6719C13.9265 69.3471 13.5088 68.8913 13.2139 68.3047C12.9222 67.7147 12.7764 67.0237 12.7764 66.2315C12.7764 65.4493 12.9222 64.7599 13.2139 64.1634C13.5088 63.5668 13.9198 63.1011 14.4468 62.7663C14.9771 62.4316 15.5969 62.2642 16.3062 62.2642C16.7371 62.2642 17.1547 62.3355 17.559 62.478C17.9634 62.6205 18.3263 62.8442 18.6478 63.1491C18.9693 63.4541 19.2229 63.8501 19.4085 64.3374C19.5941 64.8213 19.6869 65.4096 19.6869 66.1023V66.6293H13.6166V65.5156H18.2302C18.2302 65.1245 18.1507 64.7782 17.9916 64.4766C17.8325 64.1716 17.6088 63.9313 17.3204 63.7557C17.0354 63.58 16.7006 63.4922 16.3161 63.4922C15.8985 63.4922 15.5339 63.5949 15.2224 63.8004C14.9142 64.0026 14.6755 64.2678 14.5065 64.5959C14.3408 64.9207 14.2579 65.2737 14.2579 65.6548V66.5249C14.2579 67.0353 14.3474 67.4695 14.5264 67.8274C14.7087 68.1854 14.9622 68.4588 15.287 68.6477C15.6118 68.8333 15.9913 68.9261 16.4255 68.9261C16.7072 68.9261 16.9641 68.8864 17.1961 68.8068C17.4281 68.724 17.6286 68.6013 17.7977 68.4389C17.9667 68.2765 18.096 68.076 18.1855 67.8374L19.5924 68.0909C19.4797 68.5052 19.2776 68.8681 18.9859 69.1797C18.6975 69.4879 18.3346 69.7282 17.8971 69.9006C17.4629 70.0696 16.9674 70.1541 16.4106 70.1541ZM27.6501 62.3636L24.8809 70H23.29L20.5159 62.3636H22.1118L24.0457 68.2401H24.1253L26.0542 62.3636H27.6501ZM32.0786 70.1541C31.3262 70.1541 30.6782 69.9934 30.1347 69.6719C29.5944 69.3471 29.1768 68.8913 28.8818 68.3047C28.5902 67.7147 28.4443 67.0237 28.4443 66.2315C28.4443 65.4493 28.5902 64.7599 28.8818 64.1634C29.1768 63.5668 29.5878 63.1011 30.1148 62.7663C30.6451 62.4316 31.2649 62.2642 31.9742 62.2642C32.405 62.2642 32.8227 62.3355 33.227 62.478C33.6314 62.6205 33.9943 62.8442 34.3158 63.1491C34.6373 63.4541 34.8908 63.8501 35.0764 64.3374C35.262 64.8213 35.3548 65.4096 35.3548 66.1023V66.6293H29.2845V65.5156H33.8982C33.8982 65.1245 33.8186 64.7782 33.6595 64.4766C33.5004 64.1716 33.2767 63.9313 32.9884 63.7557C32.7033 63.58 32.3686 63.4922 31.9841 63.4922C31.5665 63.4922 31.2019 63.5949 30.8904 63.8004C30.5821 64.0026 30.3435 64.2678 30.1744 64.5959C30.0087 64.9207 29.9259 65.2737 29.9259 65.6548V66.5249C29.9259 67.0353 30.0154 67.4695 30.1943 67.8274C30.3766 68.1854 30.6302 68.4588 30.955 68.6477C31.2798 68.8333 31.6593 68.9261 32.0935 68.9261C32.3752 68.9261 32.6321 68.8864 32.8641 68.8068C33.0961 68.724 33.2966 68.6013 33.4656 68.4389C33.6347 68.2765 33.7639 68.076 33.8534 67.8374L35.2604 68.0909C35.1477 68.5052 34.9455 68.8681 34.6539 69.1797C34.3655 69.4879 34.0026 69.7282 33.5651 69.9006C33.1309 70.0696 32.6354 70.1541 32.0786 70.1541ZM38.4907 59.8182V70H37.0042V59.8182H38.4907ZM44.1757 70V68.8864L47.621 65.3168C47.9889 64.929 48.2922 64.5893 48.5308 64.2976C48.7728 64.0026 48.9534 63.7225 49.0727 63.4574C49.192 63.1922 49.2517 62.9105 49.2517 62.6122C49.2517 62.2741 49.1721 61.9825 49.0131 61.7372C48.854 61.4886 48.6369 61.2981 48.3618 61.1655C48.0867 61.0296 47.7768 60.9616 47.4321 60.9616C47.0675 60.9616 46.7493 61.0362 46.4775 61.1854C46.2058 61.3345 45.997 61.545 45.8511 61.8168C45.7053 62.0885 45.6324 62.4067 45.6324 62.7713H44.1657C44.1657 62.1515 44.3083 61.6096 44.5933 61.1456C44.8783 60.6816 45.2694 60.322 45.7666 60.0668C46.2638 59.8082 46.8289 59.679 47.4619 59.679C48.1016 59.679 48.665 59.8066 49.1523 60.0618C49.6428 60.3137 50.0256 60.6584 50.3007 61.0959C50.5758 61.5301 50.7133 62.0206 50.7133 62.5675C50.7133 62.9453 50.6421 63.3149 50.4996 63.6761C50.3604 64.0374 50.1167 64.4401 49.7687 64.8842C49.4207 65.325 48.9368 65.8603 48.317 66.4901L46.2936 68.608V68.6825H50.8774V70H44.1757Z" fill="black"/>
<defs>
<linearGradient id="paint0_linear_816_2038" x1="21.7742" y1="2.6129" x2="43.5484" y2="48.3387" gradientUnits="userSpaceOnUse">
<stop stop-color="#CBE441"/>
<stop offset="1" stop-color="#8DA023"/>
</linearGradient>
</defs>
</svg>
