<svg width="49" height="48" viewBox="0 0 49 48" fill="none" xmlns="http://www.w3.org/2000/svg">
<mask id="path-1-inside-1_737_5062" fill="white">
<path d="M0.390137 24C0.390137 10.7452 11.1353 0 24.3901 0C37.645 0 48.3901 10.7452 48.3901 24C48.3901 37.2548 37.645 48 24.3901 48C11.1353 48 0.390137 37.2548 0.390137 24Z"/>
</mask>
<path d="M24.3901 47C11.6876 47 1.39014 36.7025 1.39014 24H-0.609863C-0.609863 37.8071 10.583 49 24.3901 49V47ZM47.3901 24C47.3901 36.7025 37.0927 47 24.3901 47V49C38.1973 49 49.3901 37.8071 49.3901 24H47.3901ZM24.3901 1C37.0927 1 47.3901 11.2975 47.3901 24H49.3901C49.3901 10.1929 38.1973 -1 24.3901 -1V1ZM24.3901 -1C10.583 -1 -0.609863 10.1929 -0.609863 24H1.39014C1.39014 11.2975 11.6876 1 24.3901 1V-1Z" fill="#C1DFFF" mask="url(#path-1-inside-1_737_5062)"/>
<path d="M16.3901 17.6872C16.3901 17.1724 16.5703 16.7477 16.9307 16.4131C17.291 16.0784 17.7595 15.9111 18.3361 15.9111C18.9024 15.9111 19.3605 16.0759 19.7106 16.4053C20.071 16.7451 20.2511 17.1878 20.2511 17.7335C20.2511 18.2277 20.0761 18.6396 19.726 18.9691C19.3657 19.3088 18.8921 19.4787 18.3052 19.4787H18.2897C17.7235 19.4787 17.2653 19.3088 16.9152 18.9691C16.5652 18.6293 16.3901 18.202 16.3901 17.6872ZM16.5909 31.2007V20.8841H20.0195V31.2007H16.5909ZM21.9191 31.2007H25.3476V25.4401C25.3476 25.0797 25.3888 24.8017 25.4712 24.6061C25.6153 24.256 25.8341 23.96 26.1276 23.7181C26.421 23.4761 26.7891 23.3552 27.2318 23.3552C28.385 23.3552 28.9615 24.1325 28.9615 25.6872V31.2007H32.3901V25.2857C32.3901 23.7618 32.0297 22.6061 31.309 21.8185C30.5883 21.0308 29.6359 20.637 28.4519 20.637C27.1237 20.637 26.0889 21.2084 25.3476 22.3513V22.3822H25.3322L25.3476 22.3513V20.8841H21.9191C21.9397 21.2136 21.95 22.238 21.95 23.9575C21.95 25.6769 21.9397 28.0913 21.9191 31.2007Z" fill="#C1DFFF"/>
</svg>
