<svg id="Layer_1" data-name="Layer 1" xmlns="http://www.w3.org/2000/svg" viewBox="0 0 379.89 91.24"><path d="M46.5,91.24V0H69.8c7.45,0,12.41,1.48,15.59,4.66s4.66,8.14,4.66,15.6V71c0,7.46-1.48,12.41-4.66,15.59s-8.13,4.66-15.59,4.66Zm5.39-5.38H69.8c6.13,0,9.54-.91,11.75-3.12S84.66,77.12,84.66,71V48.31H51.89Zm0-42.93H84.66V20.26c0-6.08-.92-9.6-3.09-11.77s-5.7-3.1-11.77-3.1H51.89ZM38.17,91.24V48.31H5.39V71c0,6.13.9,9.54,3.11,11.75s5.62,3.12,11.76,3.12h13v5.38h-13c-7.46,0-12.42-1.48-15.6-4.66S0,78.45,0,71V20.26C0,12.8,1.48,7.84,4.66,4.66S12.8,0,20.26,0h23.3V91.24ZM20.26,5.39c-6.14,0-9.54.9-11.76,3.11S5.39,14.12,5.39,20.26V42.93H38.17V5.39Z" style="fill:#daedfc"/><path d="M319.45,68,337.7,36.3h-4.28c-6.67,0-10,.3-12.17,7.14l-.11.35-1.72-.63.18-1.22c.35-2.44.71-4.83,1-7.26l0-.31h26.24L328.66,66.08h4.25c6.54,0,10-.31,12.12-7l.24-.48,1.64.56,0,.3c-.36,2.69-.76,5.39-1.16,8.09l-.06.44Z" style="fill:#daedfc"/><path d="M352.42,68l18.25-31.7h-4.28c-6.66,0-10,.3-12.16,7.14l-.12.35-1.72-.63.19-1.3c.36-2.45.71-4.8,1-7.18l0-.31h26.24L361.64,66.08h4.24c6.55,0,10.06-.31,12.13-7l.24-.48,1.63.56,0,.3c-.36,2.7-.75,5.39-1.15,8.09l-.06.44H352.42Z" style="fill:#daedfc"/><path d="M112.87,68.44l4.7-11.59.1.08a25.81,25.81,0,0,0,5.56,3.15l.09,0-3.18,8.32Z" style="fill:#daedfc"/><path d="M149.55,68.44l-2.74-7-.5-1.31a30.73,30.73,0,0,1-22.91,0l-.09,0,2.15-5.66-.09,0A18.94,18.94,0,0,1,120,51.05l0,0,11.41-28.17h7.05l18.41,45.61Zm-24-13.94a25.11,25.11,0,0,0,18.62,0l-1.07-2.79,0-.14-2.41-6.32,0-.07L135,30.26h-.14l-8.28,21.3v.13l-1.06,2.78Z" style="fill:#daedfc"/><path d="M205.73,68c-6.52,0-9.83-3.32-9.83-9.89V23.45H202v10.9h12v5.32H202V58.76c0,2.6,1.32,3.92,3.92,3.92h8.72V65.9L211.73,68Z" style="fill:#daedfc"/><path d="M173.68,68.34a14,14,0,0,1-13.38-9.69c0-.13-.08-.25-.12-.39-.11-.39-.21-.79-.29-1.19a13.71,13.71,0,0,1-.28-2.8v-20h6.13v20a7.94,7.94,0,1,0,15.88,0v-20h6.12v20a14.27,14.27,0,0,1-.27,2.79c-.09.41-.18.81-.3,1.2l-.12.39A14,14,0,0,1,173.68,68.34Z" style="fill:#daedfc"/><path d="M257,68V66.53l.29,0a8.13,8.13,0,0,0,2.6-.54,3.29,3.29,0,0,0,1.44-1.18,5.05,5.05,0,0,0,.7-2,23.91,23.91,0,0,0,.19-3.22V32a24.19,24.19,0,0,0-.19-3.19,5,5,0,0,0-.7-2.07,3.22,3.22,0,0,0-1.44-1.17,8.13,8.13,0,0,0-2.6-.54L257,25V23.48h22.42c4.54,0,8,1,10.32,3.06a10.12,10.12,0,0,1,3.5,7.93A10.14,10.14,0,0,1,291.09,41a10.25,10.25,0,0,1-4.81,3.17l-.33.11.34.08a13.72,13.72,0,0,1,6.92,3.54,10.62,10.62,0,0,1,3.07,7.76,11.36,11.36,0,0,1-3.81,9C290,66.89,286.12,68,281.09,68Zm12.87-6.9a9.3,9.3,0,0,0,.33,2.82,3,3,0,0,0,.91,1.43,2.78,2.78,0,0,0,1.47.59,15.88,15.88,0,0,0,2.2.13h5.77a5.93,5.93,0,0,0,3.17-.84,7.75,7.75,0,0,0,2.33-2.2,10.74,10.74,0,0,0,1.43-3.14A13.79,13.79,0,0,0,288,56.2a15,15,0,0,0-.52-3.91,10.85,10.85,0,0,0-1.59-3.42,8.24,8.24,0,0,0-2.66-2.39,7.58,7.58,0,0,0-3.78-.9H269.9Zm0-17.83h9.49a5.18,5.18,0,0,0,2.82-.77,7.2,7.2,0,0,0,2.11-2.08,9.6,9.6,0,0,0,1.3-3,13.33,13.33,0,0,0,.43-3.38,12,12,0,0,0-.43-3.22,9.5,9.5,0,0,0-1.24-2.76,6.14,6.14,0,0,0-2.07-1.92,5.82,5.82,0,0,0-2.92-.71H269.9Z" style="fill:#daedfc"/><path d="M300.43,68V66.8l.42,0c.27,0,2.58-.23,2.58-3.18V41.08c0-2.95-2.32-3.17-2.58-3.18l-.42,0V36.67h.44a18.45,18.45,0,0,0,8.31-2.05l.67-.39V63.6c0,2.95,2.26,3.16,2.51,3.18l.42,0V68ZM306,31.62a3.82,3.82,0,1,1,3.86-3.86A3.82,3.82,0,0,1,306,31.62Z" style="fill:#daedfc"/><path d="M236.06,68.11a3.63,3.63,0,0,1-3.57-2.69l-.68-2.36a3.38,3.38,0,0,0-3.27-2.49,3.54,3.54,0,0,0-.85.11l-2.38.6a3.81,3.81,0,0,1-.95.12,3.72,3.72,0,0,1-2.62-6.3l1.71-1.77a3.41,3.41,0,0,0,0-4.76l-1.71-1.76a3.72,3.72,0,0,1,2.62-6.3,3.93,3.93,0,0,1,.95.12l2.38.6a3.53,3.53,0,0,0,.85.1,3.38,3.38,0,0,0,3.27-2.48l.68-2.37a3.71,3.71,0,0,1,7.13,0l.68,2.37a3.38,3.38,0,0,0,3.28,2.48,3.44,3.44,0,0,0,.84-.1l2.39-.6a3.79,3.79,0,0,1,.94-.12,3.72,3.72,0,0,1,2.62,6.3l-1.71,1.76a3.41,3.41,0,0,0,0,4.76l1.71,1.77a3.72,3.72,0,0,1-2.62,6.3,3.79,3.79,0,0,1-.94-.12l-2.39-.6a3.46,3.46,0,0,0-.84-.11,3.38,3.38,0,0,0-3.28,2.49l-.68,2.36A3.61,3.61,0,0,1,236.06,68.11Zm-7.52-7.83a3.67,3.67,0,0,1,3.55,2.7l.68,2.36a3.42,3.42,0,0,0,6.58,0L240,63a3.68,3.68,0,0,1,3.55-2.7,3.57,3.57,0,0,1,.92.12l2.39.6a3.7,3.7,0,0,0,.87.11,3.43,3.43,0,0,0,2.41-5.81l-1.71-1.77a3.69,3.69,0,0,1,0-5.16l1.71-1.76a3.43,3.43,0,0,0-2.41-5.81,3.7,3.7,0,0,0-.87.11l-2.39.6a4.06,4.06,0,0,1-.92.11A3.67,3.67,0,0,1,240,38.93l-.67-2.37a3.42,3.42,0,0,0-6.58,0l-.68,2.37a3.66,3.66,0,0,1-3.55,2.69,4.06,4.06,0,0,1-.92-.11l-2.38-.6a3.77,3.77,0,0,0-.87-.11A3.43,3.43,0,0,0,222,46.61l1.71,1.76a3.69,3.69,0,0,1,0,5.16L222,55.3a3.43,3.43,0,0,0,2.41,5.81,3.72,3.72,0,0,0,.88-.11l2.38-.6A3.63,3.63,0,0,1,228.54,60.28Z" style="fill:#daedfc"/><path d="M237.2,68.06a3.62,3.62,0,0,1-3.44-2.38l-.87-2.3a3.42,3.42,0,0,0-4.32-2l-2.32.8a3.68,3.68,0,0,1-1.26.22,3.72,3.72,0,0,1-2.83-6.06l1.55-1.91a3.4,3.4,0,0,0-.42-4.74l-1.85-1.61a3.7,3.7,0,0,1,2.39-6.51,3.31,3.31,0,0,1,.62,0l2.43.38a3.37,3.37,0,0,0,3.9-2.73l.46-2.41a3.63,3.63,0,0,1,3.32-3l.35,0a3.62,3.62,0,0,1,3.44,2.39l.88,2.29a3.39,3.39,0,0,0,3.18,2.21,3.32,3.32,0,0,0,1.13-.2l2.32-.8a4,4,0,0,1,1.26-.21A3.73,3.73,0,0,1,250,45.58l-1.55,1.9a3.41,3.41,0,0,0,.41,4.74l1.86,1.62a3.71,3.71,0,0,1-2.39,6.51,4.46,4.46,0,0,1-.63-.05l-2.42-.39a3.48,3.48,0,0,0-.55,0,3.43,3.43,0,0,0-3.35,2.77l-.47,2.42a3.63,3.63,0,0,1-3.32,3Zm-7.5-7.17a3.69,3.69,0,0,1,3.46,2.39l.88,2.29a3.33,3.33,0,0,0,3.16,2.21l.33,0A3.36,3.36,0,0,0,240.59,65l.46-2.41a3.71,3.71,0,0,1,3.63-3,4,4,0,0,1,.6.05l2.43.39a3.86,3.86,0,0,0,.58,0,3.32,3.32,0,0,0,3.06-2,3.36,3.36,0,0,0-.86-4l-1.86-1.61a3.69,3.69,0,0,1-.45-5.14l1.55-1.91a3.43,3.43,0,0,0-2.61-5.58A3.57,3.57,0,0,0,246,40l-2.33.81a3.6,3.6,0,0,1-1.22.21A3.67,3.67,0,0,1,239,38.63l-.88-2.3a3.33,3.33,0,0,0-3.17-2.2l-.32,0a3.33,3.33,0,0,0-3.06,2.75l-.47,2.42a3.7,3.7,0,0,1-3.62,3,4.3,4.3,0,0,1-.61,0l-2.43-.39a3.66,3.66,0,0,0-.57,0,3.42,3.42,0,0,0-2.2,6l1.85,1.61a3.68,3.68,0,0,1,.45,5.14l-1.55,1.91A3.44,3.44,0,0,0,225,62.1a3.68,3.68,0,0,0,1.16-.2l2.32-.8a3.64,3.64,0,0,1,.9-.2Z" style="fill:#daedfc"/><path d="M238.35,67.91a3.6,3.6,0,0,1-3.29-2.09L234,63.61A3.41,3.41,0,0,0,229.51,62l-2.24,1a3.89,3.89,0,0,1-1.55.33,3.72,3.72,0,0,1-3-5.8l1.38-2a3.4,3.4,0,0,0-.83-4.68l-2-1.44a3.71,3.71,0,0,1,2.15-6.72h.29l2.45.18h.25a3.41,3.41,0,0,0,3.4-3.07l.25-2.45a3.64,3.64,0,0,1,3.05-3.27,4,4,0,0,1,.68-.06,3.61,3.61,0,0,1,3.3,2.09l1.07,2.22a3.41,3.41,0,0,0,4.47,1.62l2.25-1a3.68,3.68,0,0,1,1.55-.34,3.73,3.73,0,0,1,3,5.8l-1.38,2a3.41,3.41,0,0,0,.82,4.69l2,1.44a3.71,3.71,0,0,1-2.15,6.71h-.28L246,59.08h-.25a3.41,3.41,0,0,0-3.39,3.07l-.26,2.44a3.61,3.61,0,0,1-3,3.27A4,4,0,0,1,238.35,67.91Zm-7.43-6.52a3.68,3.68,0,0,1,3.32,2.09l1.08,2.22a3.32,3.32,0,0,0,3,1.92,3.52,3.52,0,0,0,.64-.05,3.37,3.37,0,0,0,2.81-3l.25-2.44a3.7,3.7,0,0,1,3.68-3.33H246l2.45.17.27,0a3.43,3.43,0,0,0,2-6.2l-2-1.44a3.69,3.69,0,0,1-.89-5.08l1.37-2a3.44,3.44,0,0,0-2.79-5.35,3.57,3.57,0,0,0-1.43.31l-2.25,1a3.8,3.8,0,0,1-1.52.32,3.68,3.68,0,0,1-3.33-2.09l-1.07-2.21a3.42,3.42,0,0,0-6.48,1.14l-.26,2.45a3.7,3.7,0,0,1-3.67,3.33h-.28l-2.45-.18h-.27a3.42,3.42,0,0,0-2,6.19l2,1.44a3.7,3.7,0,0,1,.9,5.09l-1.38,2a3.43,3.43,0,0,0,2.8,5.35,3.48,3.48,0,0,0,1.43-.31l2.24-1a3.83,3.83,0,0,1,1.53-.33Z" style="fill:#daedfc"/><path d="M239.49,67.66a3.63,3.63,0,0,1-3.13-1.81l-1.27-2.11a3.38,3.38,0,0,0-2.92-1.66,3.49,3.49,0,0,0-1.67.43l-2.15,1.2a3.88,3.88,0,0,1-1.83.48,3.73,3.73,0,0,1-3.22-5.53l1.2-2.15a3.4,3.4,0,0,0-1.23-4.59l-2.11-1.27A3.71,3.71,0,0,1,223,43.76l2.46,0a3.41,3.41,0,0,0,3.37-3.36l0-2.46a3.61,3.61,0,0,1,2.75-3.52,3.83,3.83,0,0,1,1-.14,3.65,3.65,0,0,1,3.14,1.81L237,38.16a3.4,3.4,0,0,0,4.6,1.23l2.15-1.19a3.74,3.74,0,0,1,1.82-.49,3.67,3.67,0,0,1,2.6,1.11,3.62,3.62,0,0,1,.62,4.42l-1.19,2.15a3.41,3.41,0,0,0,1.23,4.6L251,51.25a3.71,3.71,0,0,1-1.85,6.89l-2.46,0a3.41,3.41,0,0,0-3.36,3.37l0,2.46a3.64,3.64,0,0,1-2.75,3.52A3.94,3.94,0,0,1,239.49,67.66Zm-7.32-5.87a3.67,3.67,0,0,1,3.17,1.8l1.26,2.11a3.36,3.36,0,0,0,2.89,1.67,3.65,3.65,0,0,0,.93-.12A3.36,3.36,0,0,0,243,64l0-2.46a3.7,3.7,0,0,1,3.65-3.65l2.46,0a3.42,3.42,0,0,0,1.7-6.35l-2.11-1.26a3.7,3.7,0,0,1-1.34-5l1.2-2.15A3.35,3.35,0,0,0,248,39a3.42,3.42,0,0,0-2.4-1,3.52,3.52,0,0,0-1.68.45l-2.15,1.2a3.71,3.71,0,0,1-5-1.34l-1.26-2.11a3.38,3.38,0,0,0-2.89-1.67,3.47,3.47,0,0,0-3.46,3.37l0,2.46A3.7,3.7,0,0,1,225.47,44l-2.46,0a3.42,3.42,0,0,0-1.7,6.35l2.11,1.27a3.69,3.69,0,0,1,1.33,5l-1.19,2.15a3.44,3.44,0,0,0,3,5.1,3.42,3.42,0,0,0,1.69-.45l2.15-1.19a3.55,3.55,0,0,1,1.81-.47Z" style="fill:#daedfc"/><path d="M240.61,67.32a3.66,3.66,0,0,1-3-1.55l-1.44-2a3.42,3.42,0,0,0-2.76-1.42,3.51,3.51,0,0,0-1.93.59l-2,1.38a3.74,3.74,0,0,1-2.09.66A3.75,3.75,0,0,1,224,59.74l1-2.24A3.41,3.41,0,0,0,223.4,53L221.19,52a3.71,3.71,0,0,1,1.24-7l2.44-.26A3.4,3.4,0,0,0,227.93,41l-.17-2.45a3.63,3.63,0,0,1,2.43-3.75,3.74,3.74,0,0,1,1.31-.24,3.62,3.62,0,0,1,3,1.55l1.44,2a3.46,3.46,0,0,0,2.77,1.41,3.4,3.4,0,0,0,1.92-.59l2-1.38a3.76,3.76,0,0,1,2.08-.65,3.74,3.74,0,0,1,3.38,5.24l-1,2.25a3.4,3.4,0,0,0,1.63,4.47L250.93,50a3.71,3.71,0,0,1-1.24,7l-2.45.25a3.42,3.42,0,0,0-3.06,3.65l.18,2.45a3.64,3.64,0,0,1-2.43,3.75A3.76,3.76,0,0,1,240.61,67.32Zm-7.16-5.25a3.73,3.73,0,0,1,3,1.54l1.44,2A3.34,3.34,0,0,0,240.62,67a3.64,3.64,0,0,0,1.21-.22,3.36,3.36,0,0,0,2.24-3.46l-.18-2.45a3.71,3.71,0,0,1,3.32-4l2.45-.25a3.42,3.42,0,0,0,1.14-6.48l-2.21-1.07a3.7,3.7,0,0,1-1.77-4.85l1-2.25a3.45,3.45,0,0,0-3.12-4.83,3.41,3.41,0,0,0-1.92.61l-2,1.37a3.68,3.68,0,0,1-5.08-.89l-1.44-2a3.42,3.42,0,0,0-6.18,2.25l.17,2.45a3.68,3.68,0,0,1-3.32,4l-2.44.25a3.42,3.42,0,0,0-1.15,6.48l2.22,1.08a3.69,3.69,0,0,1,1.76,4.85l-1,2.24a3.36,3.36,0,0,0,.92,4,3.35,3.35,0,0,0,4.12.21l2-1.38a4,4,0,0,1,.83-.42A3.84,3.84,0,0,1,233.45,62.07Z" style="fill:#daedfc"/><path d="M241.71,66.87a3.62,3.62,0,0,1-2.77-1.3l-1.61-1.85a3.4,3.4,0,0,0-2.58-1.19,3.48,3.48,0,0,0-2.16.77l-1.91,1.55a3.64,3.64,0,0,1-2.33.85,3.76,3.76,0,0,1-2.14-.69,3.62,3.62,0,0,1-1.37-4.25l.8-2.32a3.42,3.42,0,0,0-2-4.32l-2.3-.87a3.71,3.71,0,0,1,.62-7.11l2.42-.47a3.4,3.4,0,0,0,2.73-3.89l-.39-2.43a3.63,3.63,0,0,1,2.1-4,3.74,3.74,0,0,1,1.6-.36,3.62,3.62,0,0,1,2.76,1.29l1.62,1.86a3.41,3.41,0,0,0,4.74.41l1.9-1.55a3.73,3.73,0,0,1,2.34-.84,3.73,3.73,0,0,1,3.51,4.94l-.8,2.32a3.4,3.4,0,0,0,2,4.31l2.29.88a3.71,3.71,0,0,1-.62,7.11l-2.41.46a3.41,3.41,0,0,0-2.73,3.9l.38,2.43a3.63,3.63,0,0,1-2.09,4A3.77,3.77,0,0,1,241.71,66.87Zm-7-4.63a3.71,3.71,0,0,1,2.8,1.29l1.61,1.86a3.35,3.35,0,0,0,4,.85,3.34,3.34,0,0,0,1.93-3.63l-.39-2.43a3.69,3.69,0,0,1,3-4.23l2.42-.47a3.42,3.42,0,0,0,.57-6.55l-2.3-.88a3.69,3.69,0,0,1-2.18-4.67l.81-2.33a3.35,3.35,0,0,0-1.28-3.92,3.45,3.45,0,0,0-2-.64,3.4,3.4,0,0,0-2.15.79l-1.91,1.55a3.71,3.71,0,0,1-5.14-.45L233,36.52a3.36,3.36,0,0,0-2.56-1.19,3.49,3.49,0,0,0-1.47.33A3.36,3.36,0,0,0,227,39.3l.39,2.43a3.69,3.69,0,0,1-3,4.23l-2.41.46a3.42,3.42,0,0,0-.57,6.55l2.29.88a3.7,3.7,0,0,1,2.18,4.68l-.8,2.33a3.35,3.35,0,0,0,1.27,3.91,3.35,3.35,0,0,0,4.12-.14l1.91-1.55a3.53,3.53,0,0,1,.78-.49A3.63,3.63,0,0,1,234.75,62.24Z" style="fill:#daedfc"/><path d="M242.76,66.33a3.71,3.71,0,0,1-2.56-1.06l-1.76-1.71a3.4,3.4,0,0,0-4.76,0l-1.77,1.71a3.69,3.69,0,0,1-2.56,1.06,3.81,3.81,0,0,1-1.87-.51,3.64,3.64,0,0,1-1.75-4.12l.6-2.38A3.41,3.41,0,0,0,224,55.19l-2.36-.67a3.71,3.71,0,0,1,0-7.13l2.36-.68a3.4,3.4,0,0,0,2.38-4.12l-.6-2.38a3.64,3.64,0,0,1,1.75-4.12,3.71,3.71,0,0,1,1.87-.51,3.66,3.66,0,0,1,2.56,1.06l1.77,1.71a3.42,3.42,0,0,0,2.38,1,3.46,3.46,0,0,0,2.38-1l1.76-1.71a3.66,3.66,0,0,1,2.56-1.06,3.77,3.77,0,0,1,1.88.51,3.64,3.64,0,0,1,1.74,4.11l-.6,2.39a3.41,3.41,0,0,0,2.38,4.12l2.37.68a3.71,3.71,0,0,1,0,7.13l-2.37.67a3.43,3.43,0,0,0-2.38,4.13l.6,2.38a3.64,3.64,0,0,1-1.74,4.12A3.82,3.82,0,0,1,242.76,66.33ZM229.35,35.87a3.49,3.49,0,0,0-1.73.47A3.36,3.36,0,0,0,226,40.13l.6,2.39A3.69,3.69,0,0,1,224,47l-2.36.67a3.42,3.42,0,0,0,0,6.58l2.36.68a3.69,3.69,0,0,1,2.58,4.47l-.6,2.38a3.36,3.36,0,0,0,1.61,3.79,3.34,3.34,0,0,0,4.09-.5l1.77-1.71a3.94,3.94,0,0,1,.73-.56,3.74,3.74,0,0,1,1.85-.49,3.69,3.69,0,0,1,2.58,1.05l1.76,1.71a3.41,3.41,0,0,0,2.36,1,3.47,3.47,0,0,0,1.73-.48,3.34,3.34,0,0,0,1.61-3.79l-.6-2.38a3.69,3.69,0,0,1,2.58-4.47l2.37-.68a3.42,3.42,0,0,0,0-6.58L248.08,47a3.7,3.7,0,0,1-2.58-4.47l.6-2.39a3.34,3.34,0,0,0-1.61-3.79,3.46,3.46,0,0,0-1.73-.47,3.38,3.38,0,0,0-2.36,1l-1.76,1.71a3.69,3.69,0,0,1-5.16,0l-1.77-1.71A3.35,3.35,0,0,0,229.35,35.87Z" style="fill:#daedfc"/><path d="M230.41,66.87a3.81,3.81,0,0,1-1.61-.36,3.63,3.63,0,0,1-2.09-4l.39-2.43a3.42,3.42,0,0,0-2.73-3.9L222,55.77a3.71,3.71,0,0,1-.62-7.11l2.3-.88a3.41,3.41,0,0,0,2-4.31l-.8-2.32a3.62,3.62,0,0,1,1.37-4.25,3.62,3.62,0,0,1,4.47.15l1.91,1.55a3.41,3.41,0,0,0,2.15.77,3.45,3.45,0,0,0,2.59-1.18l1.61-1.86A3.64,3.64,0,0,1,241.71,35a3.74,3.74,0,0,1,1.6.36,3.65,3.65,0,0,1,2.1,4L245,41.78a3.4,3.4,0,0,0,2.73,3.89l2.41.47a3.71,3.71,0,0,1,.62,7.11l-2.29.87a3.41,3.41,0,0,0-2,4.32l.8,2.32A3.64,3.64,0,0,1,245.9,65a3.7,3.7,0,0,1-2.13.69,3.66,3.66,0,0,1-2.34-.85l-1.91-1.55a3.45,3.45,0,0,0-2.15-.77,3.39,3.39,0,0,0-2.58,1.19l-1.62,1.85A3.6,3.6,0,0,1,230.41,66.87ZM228.35,36.5a3.44,3.44,0,0,0-2,.63,3.36,3.36,0,0,0-1.27,3.92l.8,2.33a3.69,3.69,0,0,1-2.18,4.67l-2.29.88a3.42,3.42,0,0,0,.57,6.55l2.41.47a3.69,3.69,0,0,1,3,4.23L227,62.61a3.42,3.42,0,0,0,6,2.78l1.61-1.86a3.32,3.32,0,0,1,.68-.62,3.68,3.68,0,0,1,4.46.17l1.91,1.55a3.34,3.34,0,0,0,4.11.14A3.35,3.35,0,0,0,247,60.85l-.81-2.32a3.7,3.7,0,0,1,2.18-4.68l2.3-.88a3.42,3.42,0,0,0-.57-6.55L247.69,46a3.7,3.7,0,0,1-3-4.23l.39-2.43a3.34,3.34,0,0,0-1.93-3.64,3.54,3.54,0,0,0-1.48-.33,3.34,3.34,0,0,0-2.55,1.19l-1.61,1.86a3.71,3.71,0,0,1-5.14.45l-1.91-1.55A3.41,3.41,0,0,0,228.35,36.5Z" style="fill:#daedfc"/><path d="M231.5,67.32a3.74,3.74,0,0,1-1.31-.24,3.63,3.63,0,0,1-2.43-3.75l.17-2.45a3.41,3.41,0,0,0-3.06-3.65L222.43,57a3.71,3.71,0,0,1-1.24-7l2.21-1.07A3.41,3.41,0,0,0,225,44.41l-1-2.25a3.75,3.75,0,0,1,3.38-5.24,3.74,3.74,0,0,1,2.09.66l2,1.37a3.4,3.4,0,0,0,4.69-.82l1.44-2a3.65,3.65,0,0,1,3-1.55,3.74,3.74,0,0,1,1.31.24,3.64,3.64,0,0,1,2.43,3.75L244.18,41a3.4,3.4,0,0,0,3.06,3.64l2.45.26a3.71,3.71,0,0,1,1.24,7L248.72,53a3.4,3.4,0,0,0-1.63,4.47l1,2.24A3.74,3.74,0,0,1,244.71,65a3.69,3.69,0,0,1-2.08-.66l-2-1.38a3.41,3.41,0,0,0-4.69.83l-1.44,2A3.64,3.64,0,0,1,231.5,67.32Zm-4.1-30.11A3.44,3.44,0,0,0,224.29,42l1,2.25a3.69,3.69,0,0,1-1.76,4.85l-2.22,1.07a3.42,3.42,0,0,0,1.15,6.48l2.44.25a3.71,3.71,0,0,1,3.32,4l-.17,2.45a3.34,3.34,0,0,0,2.24,3.46,3.64,3.64,0,0,0,1.21.22,3.35,3.35,0,0,0,2.73-1.43l1.44-2a3.7,3.7,0,0,1,5.08-.9l2,1.38a3.42,3.42,0,0,0,5-4.23l-1-2.24a3.7,3.7,0,0,1,1.77-4.85l2.21-1.08a3.42,3.42,0,0,0-1.14-6.47L247.21,45a3.7,3.7,0,0,1-3.32-4l.18-2.45a3.35,3.35,0,0,0-2.24-3.46,3.44,3.44,0,0,0-1.21-.22,3.35,3.35,0,0,0-2.73,1.43l-1.44,2a3.69,3.69,0,0,1-5.09.89l-2-1.37A3.42,3.42,0,0,0,227.4,37.21Z" style="fill:#daedfc"/><path d="M232.62,67.66a3.81,3.81,0,0,1-1-.13A3.61,3.61,0,0,1,228.87,64l0-2.46a3.41,3.41,0,0,0-3.37-3.37l-2.46,0a3.71,3.71,0,0,1-1.84-6.89L223.27,50a3.42,3.42,0,0,0,1.23-4.6l-1.2-2.15a3.64,3.64,0,0,1,.62-4.42,3.69,3.69,0,0,1,2.6-1.11,3.77,3.77,0,0,1,1.83.49l2.15,1.19a3.39,3.39,0,0,0,4.59-1.23l1.27-2.11a3.65,3.65,0,0,1,3.13-1.81,3.85,3.85,0,0,1,1,.14,3.64,3.64,0,0,1,2.75,3.52l0,2.46a3.41,3.41,0,0,0,3.36,3.36l2.46,0A3.71,3.71,0,0,1,251,50.65l-2.11,1.27a3.39,3.39,0,0,0-1.23,4.59l1.19,2.15a3.73,3.73,0,0,1-3.22,5.53,3.73,3.73,0,0,1-1.82-.48l-2.15-1.2a3.52,3.52,0,0,0-1.67-.43A3.4,3.4,0,0,0,237,63.74l-1.26,2.11A3.63,3.63,0,0,1,232.62,67.66ZM226.52,38a3.38,3.38,0,0,0-2.39,1,3.34,3.34,0,0,0-.57,4.08l1.19,2.15a3.7,3.7,0,0,1-1.34,5l-2.1,1.26a3.42,3.42,0,0,0,1.7,6.35l2.46,0a3.71,3.71,0,0,1,3.65,3.65l0,2.46a3.35,3.35,0,0,0,2.53,3.25,3.71,3.71,0,0,0,.93.12,3.36,3.36,0,0,0,2.89-1.67l1.26-2.11a3.61,3.61,0,0,1,.57-.72A3.65,3.65,0,0,1,240,61.79a3.76,3.76,0,0,1,1.81.47l2.15,1.19a3.34,3.34,0,0,0,4.08-.57,3.35,3.35,0,0,0,.57-4.08l-1.2-2.15a3.68,3.68,0,0,1,1.34-5l2.11-1.27a3.42,3.42,0,0,0-1.7-6.35l-2.46,0A3.68,3.68,0,0,1,243,40.36l0-2.46a3.42,3.42,0,0,0-6.36-1.7l-1.26,2.11a3.69,3.69,0,0,1-5,1.34l-2.15-1.2A3.53,3.53,0,0,0,226.52,38Z" style="fill:#daedfc"/><path d="M233.76,67.91a4,4,0,0,1-.68-.06A3.62,3.62,0,0,1,230,64.58l-.25-2.44a3.41,3.41,0,0,0-3.4-3.07h-.25l-2.45.17h-.29a3.71,3.71,0,0,1-2.15-6.71l2-1.44a3.42,3.42,0,0,0,.83-4.69l-1.38-2a3.72,3.72,0,0,1,3-5.8,3.74,3.74,0,0,1,1.55.34l2.24,1A3.41,3.41,0,0,0,234,38.29l1.08-2.21A3.6,3.6,0,0,1,238.35,34a4,4,0,0,1,.69.06,3.63,3.63,0,0,1,3,3.27l.26,2.45a3.41,3.41,0,0,0,3.39,3.07H246l2.46-.18h.28a3.71,3.71,0,0,1,2.15,6.72l-2,1.44a3.4,3.4,0,0,0-.82,4.68l1.38,2a3.73,3.73,0,0,1-3,5.8,3.82,3.82,0,0,1-1.55-.33l-2.25-1a3.41,3.41,0,0,0-4.47,1.63l-1.07,2.21a3.61,3.61,0,0,1-3.3,2.09Zm-7.38-9.13a3.68,3.68,0,0,1,3.68,3.33l.26,2.44a3.42,3.42,0,0,0,6.48,1.14l1.07-2.21a4.07,4.07,0,0,1,.5-.77,3.68,3.68,0,0,1,4.35-1l2.25,1a3.41,3.41,0,0,0,1.43.31,3.43,3.43,0,0,0,2.79-5.35l-1.37-2a3.7,3.7,0,0,1,.89-5.09l2-1.44a3.42,3.42,0,0,0-2-6.19h-.26l-2.46.18h-.27a3.7,3.7,0,0,1-3.68-3.32l-.25-2.45a3.36,3.36,0,0,0-2.81-3,3.55,3.55,0,0,0-.64-.06,3.32,3.32,0,0,0-3,1.93l-1.08,2.21a3.66,3.66,0,0,1-3.32,2.09,3.85,3.85,0,0,1-1.53-.32l-2.24-1a3.65,3.65,0,0,0-1.43-.31,3.44,3.44,0,0,0-2.8,5.35l1.38,2a3.69,3.69,0,0,1-.9,5.08l-2,1.44a3.43,3.43,0,0,0,2,6.2h.27l2.45-.18Z" style="fill:#daedfc"/><path d="M234.91,68.06h-.35a3.64,3.64,0,0,1-3.32-3l-.46-2.42a3.44,3.44,0,0,0-3.9-2.73l-2.43.39a4.44,4.44,0,0,1-.62.05,3.7,3.7,0,0,1-2.39-6.51l1.85-1.61a3.41,3.41,0,0,0,.42-4.75l-1.55-1.9A3.72,3.72,0,0,1,225,39.52a3.87,3.87,0,0,1,1.26.21l2.32.8a3.38,3.38,0,0,0,4.32-2l.87-2.29a3.64,3.64,0,0,1,3.44-2.39l.35,0a3.62,3.62,0,0,1,3.32,3l.47,2.41A3.42,3.42,0,0,0,244.68,42a3.53,3.53,0,0,0,.56,0l2.42-.39a4.46,4.46,0,0,1,.63-.05,3.72,3.72,0,0,1,2.39,6.52l-1.86,1.61a3.41,3.41,0,0,0-.41,4.74L250,56.33a3.72,3.72,0,0,1-2.84,6.06,3.72,3.72,0,0,1-1.26-.22l-2.32-.8a3.41,3.41,0,0,0-4.31,2l-.88,2.3A3.61,3.61,0,0,1,234.91,68.06Zm-7.48-8.48a3.7,3.7,0,0,1,3.63,3l.47,2.41a3.34,3.34,0,0,0,3.06,2.76l.32,0a3.34,3.34,0,0,0,3.17-2.21l.88-2.29a3.76,3.76,0,0,1,.43-.82,3.7,3.7,0,0,1,3-1.57,3.6,3.6,0,0,1,1.22.21l2.33.8a3.58,3.58,0,0,0,1.16.2,3.43,3.43,0,0,0,2.61-5.59l-1.55-1.91a3.69,3.69,0,0,1,.45-5.14l1.86-1.61a3.36,3.36,0,0,0,.86-4,3.32,3.32,0,0,0-3.06-2,3.79,3.79,0,0,0-.58,0l-2.43.39a4,4,0,0,1-.6,0,3.72,3.72,0,0,1-3.63-3l-.46-2.42a3.34,3.34,0,0,0-3.06-2.75l-.33,0a3.33,3.33,0,0,0-3.16,2.2l-.88,2.3a3.69,3.69,0,0,1-4.68,2.18L226.16,40a3.66,3.66,0,0,0-1.16-.19,3.43,3.43,0,0,0-2.62,5.58l1.55,1.91a3.68,3.68,0,0,1-.45,5.14l-1.86,1.61a3.35,3.35,0,0,0-.85,4,3.31,3.31,0,0,0,3.06,2,3.64,3.64,0,0,0,.57,0l2.43-.39A4,4,0,0,1,227.43,59.58Z" style="fill:#daedfc"/></svg>