<svg width="13" height="22" viewBox="0 0 13 22" fill="none" xmlns="http://www.w3.org/2000/svg">
<path d="M12.7915 8.60793C12.7246 8.51202 12.6353 8.43388 12.5314 8.38029C12.4275 8.3267 12.312 8.29928 12.1951 8.30041H7.21211V0.875494C7.21211 0.556986 6.97707 0.281311 6.64832 0.215046C6.3137 0.147684 5.98604 0.310965 5.84948 0.601284L0.154401 12.7511C0.106333 12.8534 0.0860348 12.9665 0.0955461 13.0791C0.105057 13.1917 0.144043 13.2998 0.208584 13.3925C0.339648 13.584 0.564435 13.7 0.80533 13.7H5.78798V21.125C5.78798 21.4435 6.02301 21.7191 6.35177 21.785C6.40193 21.7946 6.45172 21.8 6.50004 21.8C6.77645 21.8 7.03419 21.6474 7.15061 21.3992L12.8457 9.24934C12.8938 9.14708 12.9141 9.03397 12.9045 8.92138C12.895 8.80878 12.856 8.70068 12.7915 8.60793Z" fill="#D1E4F8"/>
</svg>
