<svg width="49" height="48" viewBox="0 0 49 48" fill="none" xmlns="http://www.w3.org/2000/svg">
<mask id="path-1-inside-1_737_5065" fill="white">
<path d="M0.390137 24C0.390137 10.7452 11.1353 0 24.3901 0C37.645 0 48.3901 10.7452 48.3901 24C48.3901 37.2548 37.645 48 24.3901 48C11.1353 48 0.390137 37.2548 0.390137 24Z"/>
</mask>
<path d="M24.3901 47C11.6876 47 1.39014 36.7025 1.39014 24H-0.609863C-0.609863 37.8071 10.583 49 24.3901 49V47ZM47.3901 24C47.3901 36.7025 37.0927 47 24.3901 47V49C38.1973 49 49.3901 37.8071 49.3901 24H47.3901ZM24.3901 1C37.0927 1 47.3901 11.2975 47.3901 24H49.3901C49.3901 10.1929 38.1973 -1 24.3901 -1V1ZM24.3901 -1C10.583 -1 -0.609863 10.1929 -0.609863 24H1.39014C1.39014 11.2975 11.6876 1 24.3901 1V-1Z" fill="#C1DFFF" mask="url(#path-1-inside-1_737_5065)"/>
<mask id="mask0_737_5065" style="mask-type:luminance" maskUnits="userSpaceOnUse" x="13" y="14" width="21" height="20">
<path d="M33.8901 14H13.8901V34H33.8901V14Z" fill="white"/>
</mask>
<g mask="url(#mask0_737_5065)">
<path d="M29.7151 17.4922H19.0651C17.1045 17.4922 15.5151 19.0816 15.5151 21.0422V26.9589C15.5151 28.9195 17.1045 30.5089 19.0651 30.5089H29.7151C31.6757 30.5089 33.2651 28.9195 33.2651 26.9589V21.0422C33.2651 19.0816 31.6757 17.4922 29.7151 17.4922Z" stroke="#C1DFFF" stroke-width="1.67" stroke-linejoin="round"/>
<path d="M27.3479 24.0005L22.0229 26.3671V21.6338L27.3479 24.0005Z" stroke="#C1DFFF" stroke-width="1.67" stroke-linejoin="round"/>
</g>
</svg>
